<mxfile host="app.diagrams.net" modified="2021-12-16T11:07:15.204Z" agent="5.0 (Windows NT 10.0; Win64; x64) AppleWebKit/537.36 (KHTML, like Gecko) Chrome/96.0.4664.93 Safari/537.36" etag="rrpJJxwaEVxkj_pWEwXr" version="15.9.6" type="github">
  <diagram id="UWzbLiqAjsS9FFvpoK4k" name="Page-1">
    <mxGraphModel dx="1422" dy="754" grid="1" gridSize="10" guides="1" tooltips="1" connect="1" arrows="1" fold="1" page="1" pageScale="1" pageWidth="827" pageHeight="1169" background="#F1FAEE" math="0" shadow="0">
      <root>
        <mxCell id="0" />
        <mxCell id="1" parent="0" />
        <mxCell id="iqhLWT3TxBlgJ0jv45xH-4" style="edgeStyle=orthogonalEdgeStyle;curved=1;rounded=0;orthogonalLoop=1;jettySize=auto;html=1;entryX=0;entryY=0.5;entryDx=0;entryDy=0;fontSize=14;sketch=1;labelBackgroundColor=#F1FAEE;strokeColor=#457B9D;fontColor=#1D3557;" edge="1" parent="1" source="iqhLWT3TxBlgJ0jv45xH-1" target="iqhLWT3TxBlgJ0jv45xH-2">
          <mxGeometry relative="1" as="geometry">
            <Array as="points">
              <mxPoint x="140" y="380" />
              <mxPoint x="140" y="210" />
            </Array>
          </mxGeometry>
        </mxCell>
        <mxCell id="iqhLWT3TxBlgJ0jv45xH-5" style="edgeStyle=orthogonalEdgeStyle;curved=1;rounded=0;orthogonalLoop=1;jettySize=auto;html=1;fontSize=14;sketch=1;exitX=1;exitY=0.5;exitDx=0;exitDy=0;labelBackgroundColor=#F1FAEE;strokeColor=#457B9D;fontColor=#1D3557;" edge="1" parent="1" source="iqhLWT3TxBlgJ0jv45xH-1" target="iqhLWT3TxBlgJ0jv45xH-3">
          <mxGeometry relative="1" as="geometry">
            <Array as="points">
              <mxPoint x="120" y="385" />
              <mxPoint x="130" y="385" />
              <mxPoint x="130" y="560" />
            </Array>
          </mxGeometry>
        </mxCell>
        <mxCell id="iqhLWT3TxBlgJ0jv45xH-1" value="&lt;font style=&quot;font-size: 14px&quot;&gt;HTTP&lt;/font&gt;" style="rounded=0;whiteSpace=wrap;html=1;sketch=1;fillColor=#A8DADC;strokeColor=#457B9D;fontColor=#1D3557;" vertex="1" parent="1">
          <mxGeometry x="40" y="370" width="80" height="30" as="geometry" />
        </mxCell>
        <mxCell id="iqhLWT3TxBlgJ0jv45xH-88" style="edgeStyle=orthogonalEdgeStyle;curved=1;rounded=1;sketch=0;orthogonalLoop=1;jettySize=auto;html=1;entryX=0;entryY=0.5;entryDx=0;entryDy=0;fontSize=12;fontColor=#1D3557;strokeColor=#457B9D;fillColor=#A8DADC;" edge="1" parent="1" source="iqhLWT3TxBlgJ0jv45xH-2" target="iqhLWT3TxBlgJ0jv45xH-80">
          <mxGeometry relative="1" as="geometry">
            <Array as="points">
              <mxPoint x="250" y="210" />
              <mxPoint x="250" y="105" />
            </Array>
          </mxGeometry>
        </mxCell>
        <mxCell id="iqhLWT3TxBlgJ0jv45xH-89" style="edgeStyle=orthogonalEdgeStyle;curved=1;rounded=1;sketch=0;orthogonalLoop=1;jettySize=auto;html=1;entryX=0;entryY=0.5;entryDx=0;entryDy=0;fontSize=12;fontColor=#1D3557;strokeColor=#457B9D;fillColor=#A8DADC;" edge="1" parent="1" source="iqhLWT3TxBlgJ0jv45xH-2" target="iqhLWT3TxBlgJ0jv45xH-81">
          <mxGeometry relative="1" as="geometry">
            <Array as="points">
              <mxPoint x="250" y="210" />
              <mxPoint x="250" y="135" />
            </Array>
          </mxGeometry>
        </mxCell>
        <mxCell id="iqhLWT3TxBlgJ0jv45xH-90" style="edgeStyle=orthogonalEdgeStyle;curved=1;rounded=1;sketch=0;orthogonalLoop=1;jettySize=auto;html=1;entryX=0;entryY=0.5;entryDx=0;entryDy=0;fontSize=12;fontColor=#1D3557;strokeColor=#457B9D;fillColor=#A8DADC;" edge="1" parent="1" source="iqhLWT3TxBlgJ0jv45xH-2" target="iqhLWT3TxBlgJ0jv45xH-82">
          <mxGeometry relative="1" as="geometry">
            <Array as="points">
              <mxPoint x="250" y="210" />
              <mxPoint x="250" y="165" />
            </Array>
          </mxGeometry>
        </mxCell>
        <mxCell id="iqhLWT3TxBlgJ0jv45xH-92" style="edgeStyle=orthogonalEdgeStyle;curved=1;rounded=1;sketch=0;orthogonalLoop=1;jettySize=auto;html=1;entryX=0;entryY=0.5;entryDx=0;entryDy=0;fontSize=12;fontColor=#1D3557;strokeColor=#457B9D;fillColor=#A8DADC;" edge="1" parent="1" source="iqhLWT3TxBlgJ0jv45xH-2" target="iqhLWT3TxBlgJ0jv45xH-83">
          <mxGeometry relative="1" as="geometry" />
        </mxCell>
        <mxCell id="iqhLWT3TxBlgJ0jv45xH-93" style="edgeStyle=orthogonalEdgeStyle;curved=1;rounded=1;sketch=0;orthogonalLoop=1;jettySize=auto;html=1;entryX=-0.028;entryY=0.524;entryDx=0;entryDy=0;entryPerimeter=0;fontSize=12;fontColor=#1D3557;strokeColor=#457B9D;fillColor=#A8DADC;" edge="1" parent="1" source="iqhLWT3TxBlgJ0jv45xH-2" target="iqhLWT3TxBlgJ0jv45xH-84">
          <mxGeometry relative="1" as="geometry" />
        </mxCell>
        <mxCell id="iqhLWT3TxBlgJ0jv45xH-94" style="edgeStyle=orthogonalEdgeStyle;curved=1;rounded=1;sketch=0;orthogonalLoop=1;jettySize=auto;html=1;entryX=0;entryY=0.667;entryDx=0;entryDy=0;entryPerimeter=0;fontSize=12;fontColor=#1D3557;strokeColor=#457B9D;fillColor=#A8DADC;" edge="1" parent="1" source="iqhLWT3TxBlgJ0jv45xH-2" target="iqhLWT3TxBlgJ0jv45xH-85">
          <mxGeometry relative="1" as="geometry">
            <Array as="points">
              <mxPoint x="250" y="210" />
              <mxPoint x="250" y="260" />
            </Array>
          </mxGeometry>
        </mxCell>
        <mxCell id="iqhLWT3TxBlgJ0jv45xH-95" style="edgeStyle=orthogonalEdgeStyle;curved=1;rounded=1;sketch=0;orthogonalLoop=1;jettySize=auto;html=1;entryX=0;entryY=0.5;entryDx=0;entryDy=0;fontSize=12;fontColor=#1D3557;strokeColor=#457B9D;fillColor=#A8DADC;" edge="1" parent="1" source="iqhLWT3TxBlgJ0jv45xH-2" target="iqhLWT3TxBlgJ0jv45xH-86">
          <mxGeometry relative="1" as="geometry">
            <Array as="points">
              <mxPoint x="250" y="210" />
              <mxPoint x="250" y="285" />
            </Array>
          </mxGeometry>
        </mxCell>
        <mxCell id="iqhLWT3TxBlgJ0jv45xH-96" style="edgeStyle=orthogonalEdgeStyle;curved=1;rounded=1;sketch=0;orthogonalLoop=1;jettySize=auto;html=1;entryX=0;entryY=0.5;entryDx=0;entryDy=0;fontSize=12;fontColor=#1D3557;strokeColor=#457B9D;fillColor=#A8DADC;" edge="1" parent="1" source="iqhLWT3TxBlgJ0jv45xH-2" target="iqhLWT3TxBlgJ0jv45xH-87">
          <mxGeometry relative="1" as="geometry">
            <Array as="points">
              <mxPoint x="250" y="210" />
              <mxPoint x="250" y="315" />
            </Array>
          </mxGeometry>
        </mxCell>
        <mxCell id="iqhLWT3TxBlgJ0jv45xH-2" value="&lt;span style=&quot;font-size: 14px&quot;&gt;请求方法&lt;/span&gt;" style="rounded=0;whiteSpace=wrap;html=1;sketch=1;fillColor=#A8DADC;strokeColor=#457B9D;fontColor=#1D3557;" vertex="1" parent="1">
          <mxGeometry x="160" y="195" width="80" height="30" as="geometry" />
        </mxCell>
        <mxCell id="iqhLWT3TxBlgJ0jv45xH-31" style="edgeStyle=orthogonalEdgeStyle;curved=1;rounded=1;sketch=0;orthogonalLoop=1;jettySize=auto;html=1;entryX=0;entryY=0.5;entryDx=0;entryDy=0;fontSize=12;fontColor=#1D3557;strokeColor=#457B9D;fillColor=#A8DADC;" edge="1" parent="1" source="iqhLWT3TxBlgJ0jv45xH-3" target="iqhLWT3TxBlgJ0jv45xH-8">
          <mxGeometry relative="1" as="geometry">
            <Array as="points">
              <mxPoint x="250" y="655" />
              <mxPoint x="250" y="415" />
            </Array>
          </mxGeometry>
        </mxCell>
        <mxCell id="iqhLWT3TxBlgJ0jv45xH-33" style="edgeStyle=orthogonalEdgeStyle;curved=1;rounded=1;sketch=0;orthogonalLoop=1;jettySize=auto;html=1;entryX=0;entryY=0.5;entryDx=0;entryDy=0;fontSize=12;fontColor=#1D3557;strokeColor=#457B9D;fillColor=#A8DADC;" edge="1" parent="1" source="iqhLWT3TxBlgJ0jv45xH-3" target="iqhLWT3TxBlgJ0jv45xH-9">
          <mxGeometry relative="1" as="geometry">
            <Array as="points">
              <mxPoint x="260" y="655" />
              <mxPoint x="260" y="536" />
            </Array>
          </mxGeometry>
        </mxCell>
        <mxCell id="iqhLWT3TxBlgJ0jv45xH-37" style="edgeStyle=orthogonalEdgeStyle;curved=1;rounded=1;sketch=0;orthogonalLoop=1;jettySize=auto;html=1;entryX=0;entryY=0.5;entryDx=0;entryDy=0;fontSize=12;fontColor=#1D3557;strokeColor=#457B9D;fillColor=#A8DADC;" edge="1" parent="1" source="iqhLWT3TxBlgJ0jv45xH-3" target="iqhLWT3TxBlgJ0jv45xH-11">
          <mxGeometry relative="1" as="geometry" />
        </mxCell>
        <mxCell id="iqhLWT3TxBlgJ0jv45xH-38" style="edgeStyle=orthogonalEdgeStyle;curved=1;rounded=1;sketch=0;orthogonalLoop=1;jettySize=auto;html=1;entryX=0;entryY=0.5;entryDx=0;entryDy=0;fontSize=12;fontColor=#1D3557;strokeColor=#457B9D;fillColor=#A8DADC;" edge="1" parent="1" source="iqhLWT3TxBlgJ0jv45xH-3" target="iqhLWT3TxBlgJ0jv45xH-10">
          <mxGeometry relative="1" as="geometry">
            <Array as="points">
              <mxPoint x="250" y="655" />
              <mxPoint x="250" y="895" />
            </Array>
          </mxGeometry>
        </mxCell>
        <mxCell id="iqhLWT3TxBlgJ0jv45xH-39" style="edgeStyle=orthogonalEdgeStyle;curved=1;rounded=1;sketch=0;orthogonalLoop=1;jettySize=auto;html=1;entryX=0;entryY=0.5;entryDx=0;entryDy=0;fontSize=12;fontColor=#1D3557;strokeColor=#457B9D;fillColor=#A8DADC;" edge="1" parent="1" source="iqhLWT3TxBlgJ0jv45xH-3" target="iqhLWT3TxBlgJ0jv45xH-12">
          <mxGeometry relative="1" as="geometry" />
        </mxCell>
        <mxCell id="iqhLWT3TxBlgJ0jv45xH-3" value="&lt;font style=&quot;font-size: 14px&quot;&gt;状态码&lt;/font&gt;" style="rounded=0;whiteSpace=wrap;html=1;sketch=1;fillColor=#A8DADC;strokeColor=#457B9D;fontColor=#1D3557;" vertex="1" parent="1">
          <mxGeometry x="160" y="640" width="80" height="30" as="geometry" />
        </mxCell>
        <mxCell id="iqhLWT3TxBlgJ0jv45xH-17" style="edgeStyle=orthogonalEdgeStyle;curved=1;rounded=1;sketch=0;orthogonalLoop=1;jettySize=auto;html=1;exitX=1;exitY=0.5;exitDx=0;exitDy=0;entryX=0;entryY=0.5;entryDx=0;entryDy=0;fontColor=#1D3557;strokeColor=#457B9D;fillColor=#A8DADC;" edge="1" parent="1" source="iqhLWT3TxBlgJ0jv45xH-8" target="iqhLWT3TxBlgJ0jv45xH-14">
          <mxGeometry relative="1" as="geometry" />
        </mxCell>
        <mxCell id="iqhLWT3TxBlgJ0jv45xH-8" value="&lt;font style=&quot;font-size: 14px&quot;&gt;1XX&lt;br&gt;信息状态码&lt;br&gt;&lt;/font&gt;" style="rounded=0;whiteSpace=wrap;html=1;sketch=1;fillColor=#A8DADC;strokeColor=#457B9D;fontColor=#1D3557;" vertex="1" parent="1">
          <mxGeometry x="280" y="400" width="80" height="30" as="geometry" />
        </mxCell>
        <mxCell id="iqhLWT3TxBlgJ0jv45xH-28" style="edgeStyle=orthogonalEdgeStyle;curved=1;rounded=1;sketch=0;orthogonalLoop=1;jettySize=auto;html=1;exitX=1;exitY=0.5;exitDx=0;exitDy=0;entryX=0;entryY=0.5;entryDx=0;entryDy=0;fontSize=12;fontColor=#1D3557;strokeColor=#457B9D;fillColor=#A8DADC;" edge="1" parent="1" source="iqhLWT3TxBlgJ0jv45xH-9" target="iqhLWT3TxBlgJ0jv45xH-19">
          <mxGeometry relative="1" as="geometry">
            <Array as="points">
              <mxPoint x="370" y="536" />
              <mxPoint x="370" y="476" />
            </Array>
          </mxGeometry>
        </mxCell>
        <mxCell id="iqhLWT3TxBlgJ0jv45xH-29" style="edgeStyle=orthogonalEdgeStyle;curved=1;rounded=1;sketch=0;orthogonalLoop=1;jettySize=auto;html=1;entryX=0;entryY=0.5;entryDx=0;entryDy=0;fontSize=12;fontColor=#1D3557;strokeColor=#457B9D;fillColor=#A8DADC;" edge="1" parent="1" source="iqhLWT3TxBlgJ0jv45xH-9" target="iqhLWT3TxBlgJ0jv45xH-20">
          <mxGeometry relative="1" as="geometry" />
        </mxCell>
        <mxCell id="iqhLWT3TxBlgJ0jv45xH-30" style="edgeStyle=orthogonalEdgeStyle;curved=1;rounded=1;sketch=0;orthogonalLoop=1;jettySize=auto;html=1;entryX=0;entryY=0.5;entryDx=0;entryDy=0;fontSize=12;fontColor=#1D3557;strokeColor=#457B9D;fillColor=#A8DADC;" edge="1" parent="1" source="iqhLWT3TxBlgJ0jv45xH-9" target="iqhLWT3TxBlgJ0jv45xH-21">
          <mxGeometry relative="1" as="geometry" />
        </mxCell>
        <mxCell id="iqhLWT3TxBlgJ0jv45xH-9" value="&lt;font style=&quot;font-size: 14px&quot;&gt;2XX&lt;br&gt;成功状态码&lt;br&gt;&lt;/font&gt;" style="rounded=0;whiteSpace=wrap;html=1;sketch=1;fillColor=#A8DADC;strokeColor=#457B9D;fontColor=#1D3557;" vertex="1" parent="1">
          <mxGeometry x="280" y="521" width="80" height="30" as="geometry" />
        </mxCell>
        <mxCell id="iqhLWT3TxBlgJ0jv45xH-78" style="edgeStyle=orthogonalEdgeStyle;curved=1;rounded=1;sketch=0;orthogonalLoop=1;jettySize=auto;html=1;entryX=0;entryY=0.5;entryDx=0;entryDy=0;fontSize=12;fontColor=#1D3557;strokeColor=#457B9D;fillColor=#A8DADC;" edge="1" parent="1" source="iqhLWT3TxBlgJ0jv45xH-10" target="iqhLWT3TxBlgJ0jv45xH-65">
          <mxGeometry relative="1" as="geometry" />
        </mxCell>
        <mxCell id="iqhLWT3TxBlgJ0jv45xH-79" style="edgeStyle=orthogonalEdgeStyle;curved=1;rounded=1;sketch=0;orthogonalLoop=1;jettySize=auto;html=1;entryX=0;entryY=0.5;entryDx=0;entryDy=0;fontSize=12;fontColor=#1D3557;strokeColor=#457B9D;fillColor=#A8DADC;" edge="1" parent="1" source="iqhLWT3TxBlgJ0jv45xH-10" target="iqhLWT3TxBlgJ0jv45xH-68">
          <mxGeometry relative="1" as="geometry" />
        </mxCell>
        <mxCell id="iqhLWT3TxBlgJ0jv45xH-10" value="&lt;span style=&quot;font-size: 14px&quot;&gt;5XX&lt;br&gt;服务器错误&lt;br&gt;&lt;/span&gt;" style="rounded=0;whiteSpace=wrap;html=1;sketch=1;fillColor=#A8DADC;strokeColor=#457B9D;fontColor=#1D3557;" vertex="1" parent="1">
          <mxGeometry x="280" y="880" width="80" height="30" as="geometry" />
        </mxCell>
        <mxCell id="iqhLWT3TxBlgJ0jv45xH-70" style="edgeStyle=orthogonalEdgeStyle;curved=1;rounded=1;sketch=0;orthogonalLoop=1;jettySize=auto;html=1;entryX=0;entryY=0.5;entryDx=0;entryDy=0;fontSize=12;fontColor=#1D3557;strokeColor=#457B9D;fillColor=#A8DADC;" edge="1" parent="1" source="iqhLWT3TxBlgJ0jv45xH-11" target="iqhLWT3TxBlgJ0jv45xH-41">
          <mxGeometry relative="1" as="geometry">
            <Array as="points">
              <mxPoint x="370" y="655" />
              <mxPoint x="370" y="595" />
            </Array>
          </mxGeometry>
        </mxCell>
        <mxCell id="iqhLWT3TxBlgJ0jv45xH-71" style="edgeStyle=orthogonalEdgeStyle;curved=1;rounded=1;sketch=0;orthogonalLoop=1;jettySize=auto;html=1;entryX=0;entryY=0.5;entryDx=0;entryDy=0;fontSize=12;fontColor=#1D3557;strokeColor=#457B9D;fillColor=#A8DADC;" edge="1" parent="1" source="iqhLWT3TxBlgJ0jv45xH-11" target="iqhLWT3TxBlgJ0jv45xH-43">
          <mxGeometry relative="1" as="geometry" />
        </mxCell>
        <mxCell id="iqhLWT3TxBlgJ0jv45xH-72" style="edgeStyle=orthogonalEdgeStyle;curved=1;rounded=1;sketch=0;orthogonalLoop=1;jettySize=auto;html=1;entryX=0;entryY=0.5;entryDx=0;entryDy=0;fontSize=12;fontColor=#1D3557;strokeColor=#457B9D;fillColor=#A8DADC;" edge="1" parent="1" source="iqhLWT3TxBlgJ0jv45xH-11" target="iqhLWT3TxBlgJ0jv45xH-45">
          <mxGeometry relative="1" as="geometry" />
        </mxCell>
        <mxCell id="iqhLWT3TxBlgJ0jv45xH-73" style="edgeStyle=orthogonalEdgeStyle;curved=1;rounded=1;sketch=0;orthogonalLoop=1;jettySize=auto;html=1;entryX=0;entryY=0.5;entryDx=0;entryDy=0;fontSize=12;fontColor=#1D3557;strokeColor=#457B9D;fillColor=#A8DADC;" edge="1" parent="1" source="iqhLWT3TxBlgJ0jv45xH-11" target="iqhLWT3TxBlgJ0jv45xH-50">
          <mxGeometry relative="1" as="geometry" />
        </mxCell>
        <mxCell id="iqhLWT3TxBlgJ0jv45xH-11" value="&lt;font style=&quot;font-size: 14px&quot;&gt;3XX&lt;br&gt;重定向&lt;br&gt;&lt;/font&gt;" style="rounded=0;whiteSpace=wrap;html=1;sketch=1;fillColor=#A8DADC;strokeColor=#457B9D;fontColor=#1D3557;" vertex="1" parent="1">
          <mxGeometry x="280" y="640" width="80" height="30" as="geometry" />
        </mxCell>
        <mxCell id="iqhLWT3TxBlgJ0jv45xH-74" style="edgeStyle=orthogonalEdgeStyle;curved=1;rounded=1;sketch=0;orthogonalLoop=1;jettySize=auto;html=1;entryX=0;entryY=0.5;entryDx=0;entryDy=0;fontSize=12;fontColor=#1D3557;strokeColor=#457B9D;fillColor=#A8DADC;" edge="1" parent="1" source="iqhLWT3TxBlgJ0jv45xH-12" target="iqhLWT3TxBlgJ0jv45xH-53">
          <mxGeometry relative="1" as="geometry" />
        </mxCell>
        <mxCell id="iqhLWT3TxBlgJ0jv45xH-75" style="edgeStyle=orthogonalEdgeStyle;curved=1;rounded=1;sketch=0;orthogonalLoop=1;jettySize=auto;html=1;entryX=0;entryY=0.5;entryDx=0;entryDy=0;fontSize=12;fontColor=#1D3557;strokeColor=#457B9D;fillColor=#A8DADC;" edge="1" parent="1" source="iqhLWT3TxBlgJ0jv45xH-12" target="iqhLWT3TxBlgJ0jv45xH-55">
          <mxGeometry relative="1" as="geometry" />
        </mxCell>
        <mxCell id="iqhLWT3TxBlgJ0jv45xH-76" style="edgeStyle=orthogonalEdgeStyle;curved=1;rounded=1;sketch=0;orthogonalLoop=1;jettySize=auto;html=1;entryX=0;entryY=0.5;entryDx=0;entryDy=0;fontSize=12;fontColor=#1D3557;strokeColor=#457B9D;fillColor=#A8DADC;" edge="1" parent="1" source="iqhLWT3TxBlgJ0jv45xH-12" target="iqhLWT3TxBlgJ0jv45xH-57">
          <mxGeometry relative="1" as="geometry" />
        </mxCell>
        <mxCell id="iqhLWT3TxBlgJ0jv45xH-77" style="edgeStyle=orthogonalEdgeStyle;curved=1;rounded=1;sketch=0;orthogonalLoop=1;jettySize=auto;html=1;entryX=0;entryY=0.5;entryDx=0;entryDy=0;fontSize=12;fontColor=#1D3557;strokeColor=#457B9D;fillColor=#A8DADC;" edge="1" parent="1" source="iqhLWT3TxBlgJ0jv45xH-12" target="iqhLWT3TxBlgJ0jv45xH-62">
          <mxGeometry relative="1" as="geometry">
            <Array as="points">
              <mxPoint x="370" y="775" />
              <mxPoint x="370" y="835" />
            </Array>
          </mxGeometry>
        </mxCell>
        <mxCell id="iqhLWT3TxBlgJ0jv45xH-12" value="&lt;font style=&quot;font-size: 14px&quot;&gt;4XX&lt;br&gt;客户端错误&lt;br&gt;&lt;/font&gt;" style="rounded=0;whiteSpace=wrap;html=1;sketch=1;fillColor=#A8DADC;strokeColor=#457B9D;fontColor=#1D3557;" vertex="1" parent="1">
          <mxGeometry x="280" y="760" width="80" height="30" as="geometry" />
        </mxCell>
        <mxCell id="iqhLWT3TxBlgJ0jv45xH-13" value="&lt;font style=&quot;font-size: 12px&quot;&gt;Continue 继续，一般在发送post请求时，已经发送了http header之后服务端将返回此消息，表示确认，之后发送具体参数信息&lt;/font&gt;" style="rounded=0;whiteSpace=wrap;html=1;sketch=1;fillColor=#A8DADC;strokeColor=#457B9D;fontColor=#1D3557;fontStyle=1" vertex="1" parent="1">
          <mxGeometry x="500" y="390" width="400" height="30" as="geometry" />
        </mxCell>
        <mxCell id="iqhLWT3TxBlgJ0jv45xH-18" style="edgeStyle=orthogonalEdgeStyle;curved=1;rounded=1;sketch=0;orthogonalLoop=1;jettySize=auto;html=1;entryX=0;entryY=0.5;entryDx=0;entryDy=0;fontColor=#1D3557;strokeColor=#457B9D;fillColor=#A8DADC;fontStyle=1" edge="1" parent="1" source="iqhLWT3TxBlgJ0jv45xH-14" target="iqhLWT3TxBlgJ0jv45xH-13">
          <mxGeometry relative="1" as="geometry" />
        </mxCell>
        <mxCell id="iqhLWT3TxBlgJ0jv45xH-14" value="&lt;font style=&quot;font-size: 14px&quot;&gt;100&lt;/font&gt;" style="rounded=0;whiteSpace=wrap;html=1;sketch=1;fillColor=#A8DADC;strokeColor=#457B9D;fontColor=#1D3557;fontStyle=1" vertex="1" parent="1">
          <mxGeometry x="400" y="390" width="80" height="30" as="geometry" />
        </mxCell>
        <mxCell id="iqhLWT3TxBlgJ0jv45xH-25" style="edgeStyle=orthogonalEdgeStyle;curved=1;rounded=1;sketch=0;orthogonalLoop=1;jettySize=auto;html=1;entryX=0;entryY=0.5;entryDx=0;entryDy=0;fontSize=12;fontColor=#1D3557;strokeColor=#457B9D;fillColor=#A8DADC;fontStyle=1" edge="1" parent="1" source="iqhLWT3TxBlgJ0jv45xH-19" target="iqhLWT3TxBlgJ0jv45xH-22">
          <mxGeometry relative="1" as="geometry" />
        </mxCell>
        <mxCell id="iqhLWT3TxBlgJ0jv45xH-19" value="&lt;font style=&quot;font-size: 14px&quot;&gt;200&lt;/font&gt;" style="rounded=0;whiteSpace=wrap;html=1;sketch=1;fillColor=#A8DADC;strokeColor=#457B9D;fontColor=#1D3557;fontStyle=1" vertex="1" parent="1">
          <mxGeometry x="400" y="461" width="80" height="30" as="geometry" />
        </mxCell>
        <mxCell id="iqhLWT3TxBlgJ0jv45xH-26" style="edgeStyle=orthogonalEdgeStyle;curved=1;rounded=1;sketch=0;orthogonalLoop=1;jettySize=auto;html=1;fontSize=12;fontColor=#1D3557;strokeColor=#457B9D;fillColor=#A8DADC;fontStyle=1" edge="1" parent="1" source="iqhLWT3TxBlgJ0jv45xH-20" target="iqhLWT3TxBlgJ0jv45xH-23">
          <mxGeometry relative="1" as="geometry" />
        </mxCell>
        <mxCell id="iqhLWT3TxBlgJ0jv45xH-20" value="&lt;font style=&quot;font-size: 14px&quot;&gt;201&lt;/font&gt;" style="rounded=0;whiteSpace=wrap;html=1;sketch=1;fillColor=#A8DADC;strokeColor=#457B9D;fontColor=#1D3557;fontStyle=1" vertex="1" parent="1">
          <mxGeometry x="400" y="491" width="80" height="30" as="geometry" />
        </mxCell>
        <mxCell id="iqhLWT3TxBlgJ0jv45xH-27" style="edgeStyle=orthogonalEdgeStyle;curved=1;rounded=1;sketch=0;orthogonalLoop=1;jettySize=auto;html=1;fontSize=12;fontColor=#1D3557;strokeColor=#457B9D;fillColor=#A8DADC;fontStyle=1" edge="1" parent="1" source="iqhLWT3TxBlgJ0jv45xH-21" target="iqhLWT3TxBlgJ0jv45xH-24">
          <mxGeometry relative="1" as="geometry" />
        </mxCell>
        <mxCell id="iqhLWT3TxBlgJ0jv45xH-21" value="&lt;font style=&quot;font-size: 14px&quot;&gt;202&lt;/font&gt;" style="rounded=0;whiteSpace=wrap;html=1;sketch=1;fillColor=#A8DADC;strokeColor=#457B9D;fontColor=#1D3557;fontStyle=1" vertex="1" parent="1">
          <mxGeometry x="400" y="521" width="80" height="30" as="geometry" />
        </mxCell>
        <mxCell id="iqhLWT3TxBlgJ0jv45xH-22" value="&lt;font style=&quot;font-size: 12px&quot;&gt;OK 正常返回信息&lt;/font&gt;" style="rounded=0;whiteSpace=wrap;html=1;sketch=1;fillColor=#A8DADC;strokeColor=#457B9D;fontColor=#1D3557;fontStyle=1" vertex="1" parent="1">
          <mxGeometry x="500" y="461" width="400" height="30" as="geometry" />
        </mxCell>
        <mxCell id="iqhLWT3TxBlgJ0jv45xH-23" value="&lt;font style=&quot;font-size: 12px&quot;&gt;Created 请求成功并且服务器创建了新的资源&lt;/font&gt;" style="rounded=0;whiteSpace=wrap;html=1;sketch=1;fillColor=#A8DADC;strokeColor=#457B9D;fontColor=#1D3557;fontStyle=1" vertex="1" parent="1">
          <mxGeometry x="500" y="491" width="400" height="30" as="geometry" />
        </mxCell>
        <mxCell id="iqhLWT3TxBlgJ0jv45xH-24" value="&lt;font style=&quot;font-size: 12px&quot;&gt;Accepted 服务器已接受请求，但尚未处理&lt;/font&gt;" style="rounded=0;whiteSpace=wrap;html=1;sketch=1;fillColor=#A8DADC;strokeColor=#457B9D;fontColor=#1D3557;fontStyle=1" vertex="1" parent="1">
          <mxGeometry x="500" y="521" width="400" height="30" as="geometry" />
        </mxCell>
        <mxCell id="iqhLWT3TxBlgJ0jv45xH-40" style="edgeStyle=orthogonalEdgeStyle;curved=1;rounded=1;sketch=0;orthogonalLoop=1;jettySize=auto;html=1;entryX=0;entryY=0.5;entryDx=0;entryDy=0;fontSize=12;fontColor=#1D3557;strokeColor=#457B9D;fillColor=#A8DADC;fontStyle=1" edge="1" parent="1" source="iqhLWT3TxBlgJ0jv45xH-41" target="iqhLWT3TxBlgJ0jv45xH-46">
          <mxGeometry relative="1" as="geometry" />
        </mxCell>
        <mxCell id="iqhLWT3TxBlgJ0jv45xH-41" value="&lt;font style=&quot;font-size: 14px&quot;&gt;301&lt;/font&gt;" style="rounded=0;whiteSpace=wrap;html=1;sketch=1;fillColor=#A8DADC;strokeColor=#457B9D;fontColor=#1D3557;fontStyle=1" vertex="1" parent="1">
          <mxGeometry x="400" y="580" width="80" height="30" as="geometry" />
        </mxCell>
        <mxCell id="iqhLWT3TxBlgJ0jv45xH-42" style="edgeStyle=orthogonalEdgeStyle;curved=1;rounded=1;sketch=0;orthogonalLoop=1;jettySize=auto;html=1;fontSize=12;fontColor=#1D3557;strokeColor=#457B9D;fillColor=#A8DADC;fontStyle=1" edge="1" parent="1" source="iqhLWT3TxBlgJ0jv45xH-43" target="iqhLWT3TxBlgJ0jv45xH-47">
          <mxGeometry relative="1" as="geometry" />
        </mxCell>
        <mxCell id="iqhLWT3TxBlgJ0jv45xH-43" value="&lt;font style=&quot;font-size: 14px&quot;&gt;302&lt;/font&gt;" style="rounded=0;whiteSpace=wrap;html=1;sketch=1;fillColor=#A8DADC;strokeColor=#457B9D;fontColor=#1D3557;fontStyle=1" vertex="1" parent="1">
          <mxGeometry x="400" y="610" width="80" height="30" as="geometry" />
        </mxCell>
        <mxCell id="iqhLWT3TxBlgJ0jv45xH-44" style="edgeStyle=orthogonalEdgeStyle;curved=1;rounded=1;sketch=0;orthogonalLoop=1;jettySize=auto;html=1;fontSize=12;fontColor=#1D3557;strokeColor=#457B9D;fillColor=#A8DADC;fontStyle=1" edge="1" parent="1" source="iqhLWT3TxBlgJ0jv45xH-45" target="iqhLWT3TxBlgJ0jv45xH-48">
          <mxGeometry relative="1" as="geometry" />
        </mxCell>
        <mxCell id="iqhLWT3TxBlgJ0jv45xH-45" value="&lt;font style=&quot;font-size: 14px&quot;&gt;303&lt;/font&gt;" style="rounded=0;whiteSpace=wrap;html=1;sketch=1;fillColor=#A8DADC;strokeColor=#457B9D;fontColor=#1D3557;fontStyle=1" vertex="1" parent="1">
          <mxGeometry x="400" y="640" width="80" height="30" as="geometry" />
        </mxCell>
        <mxCell id="iqhLWT3TxBlgJ0jv45xH-46" value="&lt;font style=&quot;font-size: 12px&quot;&gt;Moved Permanently 请求的网页已永久移动到新位置&lt;/font&gt;" style="rounded=0;whiteSpace=wrap;html=1;sketch=1;fillColor=#A8DADC;strokeColor=#457B9D;fontColor=#1D3557;fontStyle=1" vertex="1" parent="1">
          <mxGeometry x="500" y="580" width="400" height="30" as="geometry" />
        </mxCell>
        <mxCell id="iqhLWT3TxBlgJ0jv45xH-47" value="Found 临时性重定向" style="rounded=0;whiteSpace=wrap;html=1;sketch=1;fillColor=#A8DADC;strokeColor=#457B9D;fontColor=#1D3557;fontStyle=1" vertex="1" parent="1">
          <mxGeometry x="500" y="610" width="400" height="30" as="geometry" />
        </mxCell>
        <mxCell id="iqhLWT3TxBlgJ0jv45xH-48" value="&lt;font style=&quot;font-size: 12px&quot;&gt;See Other 临时性重定向，且总是使用GET 请求新的 URI&lt;/font&gt;" style="rounded=0;whiteSpace=wrap;html=1;sketch=1;fillColor=#A8DADC;strokeColor=#457B9D;fontColor=#1D3557;fontStyle=1" vertex="1" parent="1">
          <mxGeometry x="500" y="640" width="400" height="30" as="geometry" />
        </mxCell>
        <mxCell id="iqhLWT3TxBlgJ0jv45xH-49" style="edgeStyle=orthogonalEdgeStyle;curved=1;rounded=1;sketch=0;orthogonalLoop=1;jettySize=auto;html=1;fontSize=12;fontColor=#1D3557;strokeColor=#457B9D;fillColor=#A8DADC;fontStyle=1" edge="1" parent="1" source="iqhLWT3TxBlgJ0jv45xH-50" target="iqhLWT3TxBlgJ0jv45xH-51">
          <mxGeometry relative="1" as="geometry" />
        </mxCell>
        <mxCell id="iqhLWT3TxBlgJ0jv45xH-50" value="&lt;font style=&quot;font-size: 14px&quot;&gt;304&lt;/font&gt;" style="rounded=0;whiteSpace=wrap;html=1;sketch=1;fillColor=#A8DADC;strokeColor=#457B9D;fontColor=#1D3557;fontStyle=1" vertex="1" parent="1">
          <mxGeometry x="400" y="670" width="80" height="30" as="geometry" />
        </mxCell>
        <mxCell id="iqhLWT3TxBlgJ0jv45xH-51" value="&lt;font style=&quot;font-size: 12px&quot;&gt;Not Modified 自从上次请求后，请求的网页未修改过&lt;/font&gt;" style="rounded=0;whiteSpace=wrap;html=1;sketch=1;fillColor=#A8DADC;strokeColor=#457B9D;fontColor=#1D3557;fontStyle=1" vertex="1" parent="1">
          <mxGeometry x="500" y="670" width="400" height="30" as="geometry" />
        </mxCell>
        <mxCell id="iqhLWT3TxBlgJ0jv45xH-52" style="edgeStyle=orthogonalEdgeStyle;curved=1;rounded=1;sketch=0;orthogonalLoop=1;jettySize=auto;html=1;entryX=0;entryY=0.5;entryDx=0;entryDy=0;fontSize=12;fontColor=#1D3557;strokeColor=#457B9D;fillColor=#A8DADC;fontStyle=1" edge="1" parent="1" source="iqhLWT3TxBlgJ0jv45xH-53" target="iqhLWT3TxBlgJ0jv45xH-58">
          <mxGeometry relative="1" as="geometry" />
        </mxCell>
        <mxCell id="iqhLWT3TxBlgJ0jv45xH-53" value="&lt;font style=&quot;font-size: 14px&quot;&gt;400&lt;/font&gt;" style="rounded=0;whiteSpace=wrap;html=1;sketch=1;fillColor=#A8DADC;strokeColor=#457B9D;fontColor=#1D3557;fontStyle=1" vertex="1" parent="1">
          <mxGeometry x="400" y="730" width="80" height="30" as="geometry" />
        </mxCell>
        <mxCell id="iqhLWT3TxBlgJ0jv45xH-54" style="edgeStyle=orthogonalEdgeStyle;curved=1;rounded=1;sketch=0;orthogonalLoop=1;jettySize=auto;html=1;fontSize=12;fontColor=#1D3557;strokeColor=#457B9D;fillColor=#A8DADC;fontStyle=1" edge="1" parent="1" source="iqhLWT3TxBlgJ0jv45xH-55" target="iqhLWT3TxBlgJ0jv45xH-59">
          <mxGeometry relative="1" as="geometry" />
        </mxCell>
        <mxCell id="iqhLWT3TxBlgJ0jv45xH-55" value="&lt;font style=&quot;font-size: 14px&quot;&gt;401&lt;/font&gt;" style="rounded=0;whiteSpace=wrap;html=1;sketch=1;fillColor=#A8DADC;strokeColor=#457B9D;fontColor=#1D3557;fontStyle=1" vertex="1" parent="1">
          <mxGeometry x="400" y="760" width="80" height="30" as="geometry" />
        </mxCell>
        <mxCell id="iqhLWT3TxBlgJ0jv45xH-56" style="edgeStyle=orthogonalEdgeStyle;curved=1;rounded=1;sketch=0;orthogonalLoop=1;jettySize=auto;html=1;fontSize=12;fontColor=#1D3557;strokeColor=#457B9D;fillColor=#A8DADC;fontStyle=1" edge="1" parent="1" source="iqhLWT3TxBlgJ0jv45xH-57" target="iqhLWT3TxBlgJ0jv45xH-60">
          <mxGeometry relative="1" as="geometry" />
        </mxCell>
        <mxCell id="iqhLWT3TxBlgJ0jv45xH-57" value="&lt;font style=&quot;font-size: 14px&quot;&gt;403&lt;/font&gt;" style="rounded=0;whiteSpace=wrap;html=1;sketch=1;fillColor=#A8DADC;strokeColor=#457B9D;fontColor=#1D3557;fontStyle=1" vertex="1" parent="1">
          <mxGeometry x="400" y="790" width="80" height="30" as="geometry" />
        </mxCell>
        <mxCell id="iqhLWT3TxBlgJ0jv45xH-58" value="&lt;font style=&quot;font-size: 12px&quot;&gt;Bad Request 服务器无法理解请求的格式，客户端不应该尝试再次使用相同的内容发起请求&lt;/font&gt;" style="rounded=0;whiteSpace=wrap;html=1;sketch=1;fillColor=#A8DADC;strokeColor=#457B9D;fontColor=#1D3557;fontStyle=1" vertex="1" parent="1">
          <mxGeometry x="500" y="730" width="400" height="30" as="geometry" />
        </mxCell>
        <mxCell id="iqhLWT3TxBlgJ0jv45xH-59" value="&lt;font style=&quot;font-size: 12px&quot;&gt;Unauthorized 请求未授权&lt;/font&gt;" style="rounded=0;whiteSpace=wrap;html=1;sketch=1;fillColor=#A8DADC;strokeColor=#457B9D;fontColor=#1D3557;fontStyle=1" vertex="1" parent="1">
          <mxGeometry x="500" y="760" width="400" height="30" as="geometry" />
        </mxCell>
        <mxCell id="iqhLWT3TxBlgJ0jv45xH-60" value="&lt;font style=&quot;font-size: 12px&quot;&gt;Forbidden 禁止访问&lt;/font&gt;" style="rounded=0;whiteSpace=wrap;html=1;sketch=1;fillColor=#A8DADC;strokeColor=#457B9D;fontColor=#1D3557;fontStyle=1" vertex="1" parent="1">
          <mxGeometry x="500" y="790" width="400" height="30" as="geometry" />
        </mxCell>
        <mxCell id="iqhLWT3TxBlgJ0jv45xH-61" style="edgeStyle=orthogonalEdgeStyle;curved=1;rounded=1;sketch=0;orthogonalLoop=1;jettySize=auto;html=1;fontSize=12;fontColor=#1D3557;strokeColor=#457B9D;fillColor=#A8DADC;fontStyle=1" edge="1" parent="1" source="iqhLWT3TxBlgJ0jv45xH-62" target="iqhLWT3TxBlgJ0jv45xH-63">
          <mxGeometry relative="1" as="geometry" />
        </mxCell>
        <mxCell id="iqhLWT3TxBlgJ0jv45xH-62" value="&lt;font style=&quot;font-size: 14px&quot;&gt;404&lt;/font&gt;" style="rounded=0;whiteSpace=wrap;html=1;sketch=1;fillColor=#A8DADC;strokeColor=#457B9D;fontColor=#1D3557;fontStyle=1" vertex="1" parent="1">
          <mxGeometry x="400" y="820" width="80" height="30" as="geometry" />
        </mxCell>
        <mxCell id="iqhLWT3TxBlgJ0jv45xH-63" value="&lt;font style=&quot;font-size: 12px&quot;&gt;Not Found 找不到如何与URI 相匹配的资源&lt;/font&gt;" style="rounded=0;whiteSpace=wrap;html=1;sketch=1;fillColor=#A8DADC;strokeColor=#457B9D;fontColor=#1D3557;fontStyle=1" vertex="1" parent="1">
          <mxGeometry x="500" y="820" width="400" height="30" as="geometry" />
        </mxCell>
        <mxCell id="iqhLWT3TxBlgJ0jv45xH-64" style="edgeStyle=orthogonalEdgeStyle;curved=1;rounded=1;sketch=0;orthogonalLoop=1;jettySize=auto;html=1;fontSize=12;fontColor=#1D3557;strokeColor=#457B9D;fillColor=#A8DADC;fontStyle=1" edge="1" parent="1" source="iqhLWT3TxBlgJ0jv45xH-65" target="iqhLWT3TxBlgJ0jv45xH-66">
          <mxGeometry relative="1" as="geometry" />
        </mxCell>
        <mxCell id="iqhLWT3TxBlgJ0jv45xH-65" value="&lt;font style=&quot;font-size: 14px&quot;&gt;500&lt;/font&gt;" style="rounded=0;whiteSpace=wrap;html=1;sketch=1;fillColor=#A8DADC;strokeColor=#457B9D;fontColor=#1D3557;fontStyle=1" vertex="1" parent="1">
          <mxGeometry x="400" y="880" width="80" height="30" as="geometry" />
        </mxCell>
        <mxCell id="iqhLWT3TxBlgJ0jv45xH-66" value="&lt;font style=&quot;font-size: 12px&quot;&gt;Internal Server Error 最常见的服务器错误&lt;/font&gt;" style="rounded=0;whiteSpace=wrap;html=1;sketch=1;fillColor=#A8DADC;strokeColor=#457B9D;fontColor=#1D3557;fontStyle=1" vertex="1" parent="1">
          <mxGeometry x="500" y="880" width="400" height="30" as="geometry" />
        </mxCell>
        <mxCell id="iqhLWT3TxBlgJ0jv45xH-67" style="edgeStyle=orthogonalEdgeStyle;curved=1;rounded=1;sketch=0;orthogonalLoop=1;jettySize=auto;html=1;fontSize=12;fontColor=#1D3557;strokeColor=#457B9D;fillColor=#A8DADC;fontStyle=1" edge="1" parent="1" source="iqhLWT3TxBlgJ0jv45xH-68" target="iqhLWT3TxBlgJ0jv45xH-69">
          <mxGeometry relative="1" as="geometry" />
        </mxCell>
        <mxCell id="iqhLWT3TxBlgJ0jv45xH-68" value="&lt;font style=&quot;font-size: 14px&quot;&gt;503&lt;/font&gt;" style="rounded=0;whiteSpace=wrap;html=1;sketch=1;fillColor=#A8DADC;strokeColor=#457B9D;fontColor=#1D3557;fontStyle=1" vertex="1" parent="1">
          <mxGeometry x="400" y="910" width="80" height="30" as="geometry" />
        </mxCell>
        <mxCell id="iqhLWT3TxBlgJ0jv45xH-69" value="&lt;font style=&quot;font-size: 12px&quot;&gt;Service Unavailable 服务器暂时无法处理请求(可能是过载或者维护)&lt;/font&gt;" style="rounded=0;whiteSpace=wrap;html=1;sketch=1;fillColor=#A8DADC;strokeColor=#457B9D;fontColor=#1D3557;fontStyle=1" vertex="1" parent="1">
          <mxGeometry x="500" y="910" width="400" height="30" as="geometry" />
        </mxCell>
        <mxCell id="iqhLWT3TxBlgJ0jv45xH-105" style="edgeStyle=orthogonalEdgeStyle;curved=1;rounded=1;sketch=0;orthogonalLoop=1;jettySize=auto;html=1;entryX=0;entryY=0.5;entryDx=0;entryDy=0;fontSize=12;fontColor=#1D3557;strokeColor=#457B9D;fillColor=#A8DADC;" edge="1" parent="1" source="iqhLWT3TxBlgJ0jv45xH-80" target="iqhLWT3TxBlgJ0jv45xH-97">
          <mxGeometry relative="1" as="geometry" />
        </mxCell>
        <mxCell id="iqhLWT3TxBlgJ0jv45xH-80" value="&lt;font style=&quot;font-size: 14px&quot;&gt;GET&lt;br&gt;&lt;/font&gt;" style="rounded=0;whiteSpace=wrap;html=1;sketch=1;fillColor=#A8DADC;strokeColor=#457B9D;fontColor=#1D3557;" vertex="1" parent="1">
          <mxGeometry x="280" y="90" width="80" height="30" as="geometry" />
        </mxCell>
        <mxCell id="iqhLWT3TxBlgJ0jv45xH-106" style="edgeStyle=orthogonalEdgeStyle;curved=1;rounded=1;sketch=0;orthogonalLoop=1;jettySize=auto;html=1;entryX=0;entryY=0.5;entryDx=0;entryDy=0;fontSize=12;fontColor=#1D3557;strokeColor=#457B9D;fillColor=#A8DADC;" edge="1" parent="1" source="iqhLWT3TxBlgJ0jv45xH-81" target="iqhLWT3TxBlgJ0jv45xH-104">
          <mxGeometry relative="1" as="geometry" />
        </mxCell>
        <mxCell id="iqhLWT3TxBlgJ0jv45xH-81" value="&lt;font style=&quot;font-size: 14px&quot;&gt;POST&lt;br&gt;&lt;/font&gt;" style="rounded=0;whiteSpace=wrap;html=1;sketch=1;fillColor=#A8DADC;strokeColor=#457B9D;fontColor=#1D3557;" vertex="1" parent="1">
          <mxGeometry x="280" y="120" width="80" height="30" as="geometry" />
        </mxCell>
        <mxCell id="iqhLWT3TxBlgJ0jv45xH-107" style="edgeStyle=orthogonalEdgeStyle;curved=1;rounded=1;sketch=0;orthogonalLoop=1;jettySize=auto;html=1;fontSize=12;fontColor=#1D3557;strokeColor=#457B9D;fillColor=#A8DADC;" edge="1" parent="1" source="iqhLWT3TxBlgJ0jv45xH-82" target="iqhLWT3TxBlgJ0jv45xH-103">
          <mxGeometry relative="1" as="geometry" />
        </mxCell>
        <mxCell id="iqhLWT3TxBlgJ0jv45xH-82" value="&lt;font style=&quot;font-size: 14px&quot;&gt;PUT&lt;br&gt;&lt;/font&gt;" style="rounded=0;whiteSpace=wrap;html=1;sketch=1;fillColor=#A8DADC;strokeColor=#457B9D;fontColor=#1D3557;" vertex="1" parent="1">
          <mxGeometry x="280" y="150" width="80" height="30" as="geometry" />
        </mxCell>
        <mxCell id="iqhLWT3TxBlgJ0jv45xH-108" style="edgeStyle=orthogonalEdgeStyle;curved=1;rounded=1;sketch=0;orthogonalLoop=1;jettySize=auto;html=1;entryX=0;entryY=0.5;entryDx=0;entryDy=0;fontSize=12;fontColor=#1D3557;strokeColor=#457B9D;fillColor=#A8DADC;" edge="1" parent="1" source="iqhLWT3TxBlgJ0jv45xH-83" target="iqhLWT3TxBlgJ0jv45xH-98">
          <mxGeometry relative="1" as="geometry" />
        </mxCell>
        <mxCell id="iqhLWT3TxBlgJ0jv45xH-83" value="&lt;font style=&quot;font-size: 14px&quot;&gt;HEAD&lt;br&gt;&lt;/font&gt;" style="rounded=0;whiteSpace=wrap;html=1;sketch=1;fillColor=#A8DADC;strokeColor=#457B9D;fontColor=#1D3557;" vertex="1" parent="1">
          <mxGeometry x="280" y="180" width="80" height="30" as="geometry" />
        </mxCell>
        <mxCell id="iqhLWT3TxBlgJ0jv45xH-109" style="edgeStyle=orthogonalEdgeStyle;curved=1;rounded=1;sketch=0;orthogonalLoop=1;jettySize=auto;html=1;fontSize=12;fontColor=#1D3557;strokeColor=#457B9D;fillColor=#A8DADC;" edge="1" parent="1" source="iqhLWT3TxBlgJ0jv45xH-84" target="iqhLWT3TxBlgJ0jv45xH-99">
          <mxGeometry relative="1" as="geometry" />
        </mxCell>
        <mxCell id="iqhLWT3TxBlgJ0jv45xH-84" value="&lt;font style=&quot;font-size: 14px&quot;&gt;DELETE&lt;br&gt;&lt;/font&gt;" style="rounded=0;whiteSpace=wrap;html=1;sketch=1;fillColor=#A8DADC;strokeColor=#457B9D;fontColor=#1D3557;" vertex="1" parent="1">
          <mxGeometry x="280" y="210" width="80" height="30" as="geometry" />
        </mxCell>
        <mxCell id="iqhLWT3TxBlgJ0jv45xH-110" style="edgeStyle=orthogonalEdgeStyle;curved=1;rounded=1;sketch=0;orthogonalLoop=1;jettySize=auto;html=1;entryX=0;entryY=0.5;entryDx=0;entryDy=0;fontSize=12;fontColor=#1D3557;strokeColor=#457B9D;fillColor=#A8DADC;" edge="1" parent="1" source="iqhLWT3TxBlgJ0jv45xH-85" target="iqhLWT3TxBlgJ0jv45xH-100">
          <mxGeometry relative="1" as="geometry" />
        </mxCell>
        <mxCell id="iqhLWT3TxBlgJ0jv45xH-85" value="&lt;font style=&quot;font-size: 14px&quot;&gt;OPTIONS&lt;br&gt;&lt;/font&gt;" style="rounded=0;whiteSpace=wrap;html=1;sketch=1;fillColor=#A8DADC;strokeColor=#457B9D;fontColor=#1D3557;" vertex="1" parent="1">
          <mxGeometry x="280" y="240" width="80" height="30" as="geometry" />
        </mxCell>
        <mxCell id="iqhLWT3TxBlgJ0jv45xH-111" style="edgeStyle=orthogonalEdgeStyle;curved=1;rounded=1;sketch=0;orthogonalLoop=1;jettySize=auto;html=1;entryX=0;entryY=0.5;entryDx=0;entryDy=0;fontSize=12;fontColor=#1D3557;strokeColor=#457B9D;fillColor=#A8DADC;" edge="1" parent="1" source="iqhLWT3TxBlgJ0jv45xH-86" target="iqhLWT3TxBlgJ0jv45xH-101">
          <mxGeometry relative="1" as="geometry" />
        </mxCell>
        <mxCell id="iqhLWT3TxBlgJ0jv45xH-86" value="&lt;font style=&quot;font-size: 14px&quot;&gt;TRACK&lt;br&gt;&lt;/font&gt;" style="rounded=0;whiteSpace=wrap;html=1;sketch=1;fillColor=#A8DADC;strokeColor=#457B9D;fontColor=#1D3557;" vertex="1" parent="1">
          <mxGeometry x="280" y="270" width="80" height="30" as="geometry" />
        </mxCell>
        <mxCell id="iqhLWT3TxBlgJ0jv45xH-112" style="edgeStyle=orthogonalEdgeStyle;curved=1;rounded=1;sketch=0;orthogonalLoop=1;jettySize=auto;html=1;fontSize=12;fontColor=#1D3557;strokeColor=#457B9D;fillColor=#A8DADC;" edge="1" parent="1" source="iqhLWT3TxBlgJ0jv45xH-87" target="iqhLWT3TxBlgJ0jv45xH-102">
          <mxGeometry relative="1" as="geometry" />
        </mxCell>
        <mxCell id="iqhLWT3TxBlgJ0jv45xH-87" value="&lt;font style=&quot;font-size: 14px&quot;&gt;CONNECT&lt;br&gt;&lt;/font&gt;" style="rounded=0;whiteSpace=wrap;html=1;sketch=1;fillColor=#A8DADC;strokeColor=#457B9D;fontColor=#1D3557;" vertex="1" parent="1">
          <mxGeometry x="280" y="300" width="80" height="30" as="geometry" />
        </mxCell>
        <mxCell id="iqhLWT3TxBlgJ0jv45xH-97" value="&lt;font style=&quot;font-size: 12px&quot;&gt;发送一个请求来取得服务器上的某一资源&lt;/font&gt;" style="rounded=0;whiteSpace=wrap;html=1;sketch=1;fillColor=#A8DADC;strokeColor=#457B9D;fontColor=#1D3557;fontStyle=1" vertex="1" parent="1">
          <mxGeometry x="420" y="90" width="480" height="30" as="geometry" />
        </mxCell>
        <mxCell id="iqhLWT3TxBlgJ0jv45xH-98" value="&lt;font style=&quot;font-size: 12px&quot;&gt;只请求页面的首部&lt;/font&gt;" style="rounded=0;whiteSpace=wrap;html=1;sketch=1;fillColor=#A8DADC;strokeColor=#457B9D;fontColor=#1D3557;fontStyle=1" vertex="1" parent="1">
          <mxGeometry x="420" y="180" width="480" height="30" as="geometry" />
        </mxCell>
        <mxCell id="iqhLWT3TxBlgJ0jv45xH-99" value="&lt;font style=&quot;font-size: 12px&quot;&gt;删除服务器上的某资源&lt;/font&gt;" style="rounded=0;whiteSpace=wrap;html=1;sketch=1;fillColor=#A8DADC;strokeColor=#457B9D;fontColor=#1D3557;fontStyle=1" vertex="1" parent="1">
          <mxGeometry x="420" y="210" width="480" height="30" as="geometry" />
        </mxCell>
        <mxCell id="iqhLWT3TxBlgJ0jv45xH-100" value="用于获取当前URL所支持的方法。如果请求成功，会有一个Allow的头包含类似“GET，POST”这样的信息" style="rounded=0;whiteSpace=wrap;html=1;sketch=1;fillColor=#A8DADC;strokeColor=#457B9D;fontColor=#1D3557;fontStyle=1" vertex="1" parent="1">
          <mxGeometry x="420" y="240" width="480" height="30" as="geometry" />
        </mxCell>
        <mxCell id="iqhLWT3TxBlgJ0jv45xH-101" value="被用于激发一个远程的，应用层的请求消息回路" style="rounded=0;whiteSpace=wrap;html=1;sketch=1;fillColor=#A8DADC;strokeColor=#457B9D;fontColor=#1D3557;fontStyle=1" vertex="1" parent="1">
          <mxGeometry x="420" y="270" width="480" height="30" as="geometry" />
        </mxCell>
        <mxCell id="iqhLWT3TxBlgJ0jv45xH-102" value="&lt;font style=&quot;font-size: 12px&quot;&gt;把请求连接转换到透明的TCP/IP通道&lt;/font&gt;" style="rounded=0;whiteSpace=wrap;html=1;sketch=1;fillColor=#A8DADC;strokeColor=#457B9D;fontColor=#1D3557;fontStyle=1" vertex="1" parent="1">
          <mxGeometry x="420" y="300" width="480" height="30" as="geometry" />
        </mxCell>
        <mxCell id="iqhLWT3TxBlgJ0jv45xH-103" value="&lt;font style=&quot;font-size: 12px&quot;&gt;跟POST方法很像，也是向服务器提交数据。但是，又不同。PUT执行了资源在服务器上的位置，而POST没有&lt;/font&gt;" style="rounded=0;whiteSpace=wrap;html=1;sketch=1;fillColor=#A8DADC;strokeColor=#457B9D;fontColor=#1D3557;fontStyle=1" vertex="1" parent="1">
          <mxGeometry x="420" y="150" width="480" height="30" as="geometry" />
        </mxCell>
        <mxCell id="iqhLWT3TxBlgJ0jv45xH-104" value="&lt;font style=&quot;font-size: 12px&quot;&gt;向URL指定的资源提交数据或附加新的数据&lt;/font&gt;" style="rounded=0;whiteSpace=wrap;html=1;sketch=1;fillColor=#A8DADC;strokeColor=#457B9D;fontColor=#1D3557;fontStyle=1" vertex="1" parent="1">
          <mxGeometry x="420" y="120" width="480" height="30" as="geometry" />
        </mxCell>
      </root>
    </mxGraphModel>
  </diagram>
</mxfile>
